<svg width="417" height="521" viewBox="0 0 417 521" fill="none" xmlns="http://www.w3.org/2000/svg">
<path fill-rule="evenodd" clip-rule="evenodd" d="M75.571 100.937L1 157V364L75.571 420.063V100.937ZM157.945 39.0079V246.886L205.531 188.196L302.21 71.4518L208.5 1L157.945 39.0079ZM363.29 117.373L267.292 231.431L379.527 391.421L416 364V157L363.29 117.373ZM315.778 439.347L212.878 291.119L157.945 349.322V481.992L208.5 520L315.778 439.347Z" fill="url(#paint0_linear_7_85065)"/>
<path d="M1 157L0.699538 156.6L0.5 156.75V157H1ZM75.571 100.937H76.071V99.9356L75.2705 100.537L75.571 100.937ZM1 364H0.5V364.25L0.699538 364.4L1 364ZM75.571 420.063L75.2705 420.463L76.071 421.064V420.063H75.571ZM157.945 39.0079L157.644 38.6082L157.445 38.7582V39.0079H157.945ZM157.945 246.886H157.445V248.297L158.333 247.201L157.945 246.886ZM205.531 188.196L205.146 187.877L205.143 187.881L205.531 188.196ZM302.21 71.4518L302.595 71.7707L302.929 71.3671L302.51 71.0521L302.21 71.4518ZM208.5 1L208.8 0.600347L208.5 0.374457L208.2 0.600347L208.5 1ZM363.29 117.373L363.591 116.973L363.213 116.688L362.908 117.051L363.29 117.373ZM267.292 231.431L266.91 231.109L266.662 231.403L266.883 231.718L267.292 231.431ZM379.527 391.421L379.118 391.708L379.414 392.131L379.827 391.82L379.527 391.421ZM416 364L416.3 364.4L416.5 364.25V364H416ZM416 157H416.5V156.75L416.3 156.6L416 157ZM315.778 439.347L316.079 439.747L316.463 439.458L316.189 439.062L315.778 439.347ZM212.878 291.119L213.288 290.834L212.937 290.328L212.514 290.776L212.878 291.119ZM157.945 349.322L157.581 348.979L157.445 349.123V349.322H157.945ZM157.945 481.992H157.445V482.242L157.644 482.392L157.945 481.992ZM208.5 520L208.2 520.4L208.5 520.626L208.8 520.4L208.5 520ZM1.30046 157.4L75.8714 101.337L75.2705 100.537L0.699538 156.6L1.30046 157.4ZM1.5 364V157H0.5V364H1.5ZM75.8714 419.663L1.30046 363.6L0.699538 364.4L75.2705 420.463L75.8714 419.663ZM76.071 420.063V100.937H75.071V420.063H76.071ZM157.445 39.0079V246.886H158.445V39.0079H157.445ZM158.333 247.201L205.919 188.511L205.143 187.881L157.556 246.571L158.333 247.201ZM205.916 188.515L302.595 71.7707L301.825 71.1329L205.146 187.877L205.916 188.515ZM208.2 1.39965L301.909 71.8514L302.51 71.0521L208.8 0.600347L208.2 1.39965ZM158.245 39.4075L208.8 1.39965L208.2 0.600347L157.644 38.6082L158.245 39.4075ZM362.908 117.051L266.91 231.109L267.675 231.753L363.673 117.695L362.908 117.051ZM266.883 231.718L379.118 391.708L379.936 391.134L267.702 231.144L266.883 231.718ZM415.7 363.6L379.226 391.021L379.827 391.82L416.3 364.4L415.7 363.6ZM415.5 157V364H416.5V157H415.5ZM362.99 117.772L415.7 157.4L416.3 156.6L363.591 116.973L362.99 117.772ZM316.189 439.062L213.288 290.834L212.467 291.404L315.367 439.633L316.189 439.062ZM212.514 290.776L157.581 348.979L158.308 349.665L213.241 291.462L212.514 290.776ZM157.445 349.322V481.992H158.445V349.322H157.445ZM208.8 519.6L158.245 481.593L157.644 482.392L208.2 520.4L208.8 519.6ZM315.478 438.948L208.2 519.6L208.8 520.4L316.079 439.747L315.478 438.948Z" fill="#00224D"/>
<defs>
<linearGradient id="paint0_linear_7_85065" x1="209" y1="-98.5" x2="209" y2="632.5" gradientUnits="userSpaceOnUse">
<stop stop-color="#FF204E"/>
<stop offset="0.35" stop-color="#A0153E"/>
<stop offset="0.68" stop-color="#5D0E41"/>
<stop offset="1" stop-color="#00224D"/>
</linearGradient>
</defs>
</svg>
