<svg width="2268" height="520" viewBox="0 0 2268 520" fill="none" xmlns="http://www.w3.org/2000/svg">
<path fill-rule="evenodd" clip-rule="evenodd" d="M66.9459 118.892L1 168.471V351.529L66.9459 401.107V118.892ZM139.792 64.1262V248.134L181.875 196.232L267.46 92.8841L184.5 30.5144L139.792 64.1262ZM321.476 133.494L236.492 234.467L335.666 375.838L368 351.529V168.471L321.476 133.494ZM279.291 418.221L188.371 287.251L139.792 338.722V455.874L184.5 489.486L279.291 418.221Z" fill="url(#paint0_linear_45_79)"/>
<path d="M1 168.471L0.73429 168.118L0.557831 168.25V168.471H1ZM66.9459 118.892H67.3881V118.007L66.6802 118.539L66.9459 118.892ZM1 351.529H0.557831V351.75L0.73429 351.882L1 351.529ZM66.9459 401.107L66.6802 401.461L67.3881 401.993V401.107H66.9459ZM139.792 64.1262L139.526 63.7727L139.35 63.9054V64.1262H139.792ZM139.792 248.134H139.35V249.381L140.136 248.412L139.792 248.134ZM181.875 196.232L181.534 195.95L181.531 195.954L181.875 196.232ZM267.46 92.8841L267.8 93.1661L268.096 92.8092L267.725 92.5307L267.46 92.8841ZM184.5 30.5144L184.766 30.161L184.5 29.9612L184.234 30.161L184.5 30.5144ZM321.476 133.494L321.742 133.141L321.408 132.889L321.138 133.209L321.476 133.494ZM236.492 234.467L236.154 234.182L235.935 234.442L236.13 234.721L236.492 234.467ZM335.666 375.838L335.304 376.092L335.566 376.466L335.931 376.191L335.666 375.838ZM368 351.529L368.266 351.882L368.442 351.75V351.529H368ZM368 168.471H368.442V168.25L368.266 168.118L368 168.471ZM279.291 418.221L279.557 418.574L279.897 418.319L279.654 417.969L279.291 418.221ZM188.371 287.251L188.734 286.999L188.424 286.551L188.05 286.948L188.371 287.251ZM139.792 338.722L139.47 338.418L139.35 338.546V338.722H139.792ZM139.792 455.874H139.35V456.095L139.526 456.227L139.792 455.874ZM184.5 489.486L184.234 489.839L184.5 490.039L184.766 489.839L184.5 489.486ZM1.26571 168.824L67.2116 119.246L66.6802 118.539L0.73429 168.118L1.26571 168.824ZM1.44217 351.529V168.471H0.557831V351.529H1.44217ZM67.2116 400.754L1.26571 351.175L0.73429 351.882L66.6802 401.461L67.2116 400.754ZM67.3881 401.107V118.892H66.5037V401.107H67.3881ZM139.35 64.1262V248.134H140.234V64.1262H139.35ZM140.136 248.412L182.218 196.511L181.531 195.954L139.449 247.856L140.136 248.412ZM182.215 196.514L267.8 93.1661L267.119 92.6021L181.534 195.95L182.215 196.514ZM184.234 30.8678L267.194 93.2376L267.725 92.5307L184.766 30.161L184.234 30.8678ZM140.058 64.4796L184.766 30.8678L184.234 30.161L139.526 63.7727L140.058 64.4796ZM321.138 133.209L236.154 234.182L236.831 234.751L321.815 133.779L321.138 133.209ZM236.13 234.721L335.304 376.092L336.028 375.584L236.854 234.213L236.13 234.721ZM367.734 351.175L335.4 375.485L335.931 376.191L368.266 351.882L367.734 351.175ZM367.558 168.471V351.529H368.442V168.471H367.558ZM321.211 133.848L367.734 168.824L368.266 168.118L321.742 133.141L321.211 133.848ZM279.654 417.969L188.734 286.999L188.008 287.503L278.928 418.473L279.654 417.969ZM188.05 286.948L139.47 338.418L140.114 339.025L188.693 287.555L188.05 286.948ZM139.35 338.722V455.874H140.234V338.722H139.35ZM184.766 489.132L140.058 455.52L139.526 456.227L184.234 489.839L184.766 489.132ZM279.025 417.868L184.234 489.132L184.766 489.839L279.557 418.574L279.025 417.868Z" fill="#00224D"/>
<path d="M647.198 275.805C653.842 268.558 660.636 261.009 667.582 253.157C674.829 245.306 681.774 237.606 688.418 230.056C695.061 222.205 701.252 214.807 706.989 207.861C713.029 200.916 718.162 194.876 722.39 189.743H802.564C786.559 208.163 770.857 225.829 755.456 242.739C740.357 259.348 723.749 276.56 705.63 294.377C714.689 302.53 724.051 312.344 733.714 323.819C743.377 334.992 752.738 346.618 761.797 358.697C770.857 370.776 779.161 382.855 786.71 394.934C794.26 407.013 800.601 418.035 805.735 428H728.278C723.447 420.149 717.86 411.542 711.519 402.181C705.479 392.518 698.987 383.006 692.041 373.645C685.096 363.982 677.698 354.771 669.846 346.014C662.297 337.257 654.748 329.859 647.198 323.819V428H579.707V87.3737L647.198 76.5026V275.805ZM913.458 392.216C913.458 405.805 909.079 416.223 900.322 423.47C891.867 430.416 882.203 433.888 871.332 433.888C860.461 433.888 850.647 430.416 841.89 423.47C833.435 416.223 829.207 405.805 829.207 392.216C829.207 378.627 833.435 368.36 841.89 361.415C850.647 354.167 860.461 350.544 871.332 350.544C882.203 350.544 891.867 354.167 900.322 361.415C909.079 368.36 913.458 378.627 913.458 392.216ZM956.531 130.405L1024.02 119.534V189.743H1105.1V245.91H1024.02V329.708C1024.02 343.9 1026.44 355.224 1031.27 363.68C1036.4 372.135 1046.52 376.362 1061.62 376.362C1068.87 376.362 1076.26 375.759 1083.81 374.551C1091.66 373.041 1098.76 371.078 1105.1 368.662L1114.61 421.206C1106.46 424.527 1097.4 427.396 1087.44 429.812C1077.47 432.228 1065.24 433.436 1050.75 433.436C1032.33 433.436 1017.08 431.02 1005 426.188C992.919 421.055 983.256 414.109 976.009 405.352C968.761 396.293 963.628 385.422 960.608 372.739C957.89 360.056 956.531 346.014 956.531 330.613V130.405ZM1139.89 310.683C1139.89 289.545 1143.06 271.125 1149.4 255.422C1156.05 239.417 1164.65 226.131 1175.22 215.562C1185.79 204.992 1197.87 196.99 1211.46 191.555C1225.35 186.119 1239.54 183.401 1254.04 183.401C1287.86 183.401 1314.58 193.819 1334.21 214.656C1353.84 235.19 1363.65 265.538 1363.65 305.701C1363.65 309.626 1363.5 314.005 1363.2 318.837C1362.9 323.366 1362.6 327.443 1362.3 331.066H1209.19C1210.7 344.957 1217.2 355.979 1228.67 364.133C1240.15 372.286 1255.55 376.362 1274.87 376.362C1287.26 376.362 1299.33 375.306 1311.11 373.192C1323.19 370.776 1333 367.907 1340.55 364.586L1349.61 419.394C1345.99 421.206 1341.16 423.017 1335.12 424.829C1329.08 426.641 1322.28 428.151 1314.73 429.359C1307.49 430.869 1299.64 432.077 1291.18 432.983C1282.73 433.888 1274.27 434.341 1265.82 434.341C1244.37 434.341 1225.65 431.171 1209.65 424.829C1193.95 418.488 1180.81 409.882 1170.24 399.011C1159.97 387.837 1152.27 374.702 1147.14 359.603C1142.31 344.504 1139.89 328.198 1139.89 310.683ZM1298.43 284.864C1298.13 279.127 1297.07 273.54 1295.26 268.105C1293.75 262.669 1291.18 257.838 1287.56 253.61C1284.24 249.383 1279.86 245.91 1274.42 243.192C1269.29 240.474 1262.8 239.115 1254.94 239.115C1247.39 239.115 1240.9 240.474 1235.47 243.192C1230.03 245.608 1225.5 248.93 1221.88 253.157C1218.25 257.385 1215.39 262.367 1213.27 268.105C1211.46 273.54 1210.1 279.127 1209.19 284.864H1298.43ZM1546.64 301.624C1546.64 279.882 1543.77 264.481 1538.04 255.422C1532.6 246.363 1523.09 241.833 1509.5 241.833C1505.27 241.833 1500.89 242.135 1496.36 242.739C1491.84 243.041 1487.46 243.494 1483.23 244.098V428H1415.74V197.896C1421.48 196.386 1428.12 194.876 1435.67 193.366C1443.52 191.555 1451.67 190.045 1460.13 188.837C1468.89 187.327 1477.79 186.27 1486.85 185.666C1495.91 184.76 1504.82 184.307 1513.58 184.307C1530.79 184.307 1544.68 186.572 1555.25 191.102C1566.12 195.329 1575.03 200.463 1581.97 206.502C1591.64 199.557 1602.66 194.121 1615.04 190.196C1627.72 186.27 1639.35 184.307 1649.92 184.307C1668.94 184.307 1684.49 187.025 1696.57 192.461C1708.95 197.594 1718.77 204.992 1726.02 214.656C1733.26 224.319 1738.25 235.794 1740.96 249.081C1743.68 262.367 1745.04 277.164 1745.04 293.471V428H1677.55V301.624C1677.55 279.882 1674.68 264.481 1668.94 255.422C1663.51 246.363 1654 241.833 1640.41 241.833C1636.78 241.833 1631.65 242.739 1625.01 244.551C1618.66 246.363 1613.38 248.628 1609.15 251.345C1611.27 258.291 1612.62 265.689 1613.23 273.54C1613.83 281.09 1614.13 289.243 1614.13 298V428H1546.64V301.624ZM1958.98 310.683C1958.98 289.847 1954.3 273.238 1944.93 260.858C1935.57 248.175 1921.68 241.833 1903.26 241.833C1897.22 241.833 1891.64 242.135 1886.5 242.739C1881.37 243.041 1877.14 243.494 1873.82 244.098V365.944C1878.05 368.662 1883.48 370.927 1890.13 372.739C1897.07 374.551 1904.02 375.457 1910.96 375.457C1942.97 375.457 1958.98 353.865 1958.98 310.683ZM2027.83 308.871C2027.83 327.292 2025.56 344.051 2021.03 359.15C2016.5 374.249 2009.86 387.234 2001.1 398.105C1992.34 408.976 1981.47 417.431 1968.49 423.47C1955.5 429.51 1940.56 432.53 1923.64 432.53C1914.28 432.53 1905.53 431.624 1897.37 429.812C1889.22 428 1881.37 425.433 1873.82 422.112V511.798H1806.33V197.896C1812.37 196.084 1819.31 194.423 1827.16 192.913C1835.02 191.102 1843.17 189.592 1851.62 188.384C1860.38 187.176 1869.14 186.27 1877.9 185.666C1886.95 184.76 1895.56 184.307 1903.71 184.307C1923.34 184.307 1940.86 187.327 1956.26 193.366C1971.66 199.104 1984.64 207.408 1995.21 218.279C2005.78 228.848 2013.78 241.833 2019.22 257.234C2024.96 272.635 2027.83 289.847 2027.83 308.871ZM2148.09 379.533C2160.47 379.533 2169.23 378.325 2174.37 375.91C2179.5 373.494 2182.07 368.813 2182.07 361.868C2182.07 356.432 2178.74 351.752 2172.1 347.826C2165.46 343.598 2155.34 338.918 2141.75 333.784C2131.18 329.859 2121.52 325.782 2112.76 321.554C2104.31 317.327 2097.06 312.344 2091.02 306.607C2084.98 300.567 2080.3 293.471 2076.98 285.317C2073.66 277.164 2072 267.35 2072 255.875C2072 233.529 2080.3 215.863 2096.91 202.879C2113.52 189.894 2136.32 183.401 2165.31 183.401C2179.8 183.401 2193.69 184.76 2206.98 187.478C2220.27 189.894 2230.83 192.612 2238.69 195.631L2226.91 248.175C2219.06 245.457 2210.45 243.041 2201.09 240.927C2192.03 238.813 2181.76 237.757 2170.29 237.757C2149.15 237.757 2138.58 243.645 2138.58 255.422C2138.58 258.14 2139.03 260.556 2139.94 262.669C2140.85 264.783 2142.66 266.897 2145.38 269.011C2148.09 270.823 2151.72 272.936 2156.25 275.352C2161.08 277.466 2167.12 279.882 2174.37 282.6C2189.16 288.035 2201.39 293.471 2211.06 298.906C2220.72 304.04 2228.27 309.777 2233.7 316.119C2239.44 322.158 2243.37 328.953 2245.48 336.502C2247.9 344.051 2249.1 352.809 2249.1 362.774C2249.1 386.328 2240.2 404.144 2222.38 416.223C2204.86 428.302 2179.95 434.341 2147.64 434.341C2126.5 434.341 2108.84 432.53 2094.64 428.906C2080.75 425.282 2071.09 422.262 2065.65 419.847L2076.98 365.038C2088.45 369.568 2100.23 373.192 2112.31 375.91C2124.39 378.325 2136.32 379.533 2148.09 379.533Z" fill="white"/>
<defs>
<linearGradient id="paint0_linear_45_79" x1="184.942" y1="-57.4772" x2="184.942" y2="588.973" gradientUnits="userSpaceOnUse">
<stop stop-color="#FF204E"/>
<stop offset="0.35" stop-color="#A0153E"/>
<stop offset="0.68" stop-color="#5D0E41"/>
<stop offset="1" stop-color="#00224D"/>
</linearGradient>
</defs>
</svg>
